<?xml version="1.0" standalone="no"?>
<!DOCTYPE svg PUBLIC "-//W3C//DTD SVG 20010904//EN"
 "http://www.w3.org/TR/2001/REC-SVG-20010904/DTD/svg10.dtd">
<svg version="1.0" xmlns="http://www.w3.org/2000/svg"
 width="600.000000pt" height="600.000000pt" viewBox="0 0 600.000000 600.000000"
 preserveAspectRatio="xMidYMid meet">
<metadata>
Created by potrace 1.11, written by Peter Selinger 2001-2013
</metadata>
<g transform="translate(0.000000,600.000000) scale(0.100000,-0.100000)"
fill="#000000" stroke="none">
<path d="M1710 5345 l-1285 -643 0 -1703 0 -1702 1288 -643 1287 -644 1288
644 1287 644 0 1700 c0 935 -2 1702 -5 1705 -6 5 -2570 1287 -2573 1286 -1 0
-580 -290 -1287 -644z m1602 330 c164 -43 272 -135 285 -244 10 -85 -42 -158
-152 -212 -188 -92 -473 -61 -614 67 -107 96 -109 221 -5 308 110 91 315 125
486 81z m-170 -721 c147 -55 238 -148 238 -243 0 -99 -92 -188 -235 -228 -75
-22 -238 -25 -315 -7 -130 29 -253 111 -286 189 -18 45 -18 114 2 153 19 39
83 95 140 122 119 58 320 64 456 14z m-257 -674 c128 -41 216 -103 255 -179
54 -106 6 -207 -132 -277 -150 -76 -407 -65 -553 24 -129 78 -173 178 -124
279 34 71 105 120 224 154 71 21 265 20 330 -1z m2346 -468 c43 -17 95 -69
120 -120 20 -40 23 -62 23 -147 -1 -83 -5 -110 -26 -160 -114 -275 -381 -414
-545 -285 -179 141 -90 518 157 668 97 58 194 74 271 44z m-1485 -792 c92 -45
133 -130 129 -265 -13 -393 -491 -656 -639 -352 -70 143 -15 358 129 503 130
131 262 171 381 114z m-2034 -359 c204 -98 304 -446 174 -607 -148 -184 -456
67 -458 371 0 207 127 313 284 236z m2863 -2 c24 -6 61 -26 83 -45 167 -143
78 -503 -163 -659 -158 -102 -326 -70 -393 74 -23 48 -26 69 -26 151 1 112 25
182 98 284 114 160 259 231 401 195z m748 -335 c59 -20 122 -89 141 -155 20
-66 13 -190 -15 -265 -102 -275 -391 -424 -554 -286 -147 124 -106 417 83 599
108 105 235 145 345 107z m-1488 -824 c123 -47 181 -200 139 -366 -45 -183
-197 -348 -352 -384 -209 -49 -348 124 -295 364 16 72 35 114 85 188 111 166
290 250 423 198z"/>
</g>
</svg>
