<?xml version="1.0" encoding="utf-8"?>
<!-- Generator: Adobe Illustrator 18.0.0, SVG Export Plug-In . SVG Version: 6.00 Build 0)  -->
<!DOCTYPE svg PUBLIC "-//W3C//DTD SVG 1.1//EN" "http://www.w3.org/Graphics/SVG/1.1/DTD/svg11.dtd">
<svg version="1.1" id="Layer_1" xmlns="http://www.w3.org/2000/svg" xmlns:xlink="http://www.w3.org/1999/xlink" x="0px" y="0px"
	 viewBox="0 0 600 600" enable-background="new 0 0 600 600" xml:space="preserve">
<g>
	<path fill="#FFFFFF" d="M43.6,469.9c0-113.3,0-226.7,0-340c1,0.3,1.7-0.5,2.5-0.9C129.9,87.2,213.6,45.3,297.3,3.5
		c0.8-0.4,1.8-0.5,2.1-1.5c0.6,0,1.1,0,1.7,0c0.3,1,1.4,1.1,2.1,1.5C386.9,45.3,470.7,87.2,554.4,129c0.8,0.4,1.5,1.2,2.5,0.9
		c0,113.3,0,226.7,0,340c-1-0.2-1.7,0.5-2.5,0.9c-83.7,41.8-167.5,83.7-251.2,125.6c-0.8,0.4-1.8,0.5-2.2,1.5c-0.6,0-1.1,0-1.7,0
		c-0.4-1.1-1.5-1.2-2.4-1.6c-83.6-41.8-167.1-83.6-250.7-125.3C45.5,470.5,44.7,469.7,43.6,469.9z M388.1,321.7
		c0-1.4-0.2-3.8-0.6-6.3c-2-10.5-9-18-18.7-19.7c-7.7-1.4-14.9,0.5-21.4,4.5c-16.2,10-25.1,24.6-26.7,43.4
		c-0.7,7.8,1.2,15.2,6.3,21.5c5.9,7.3,16.2,9.7,26.8,6.3C372.7,365.4,388.3,343.4,388.1,321.7z M547.6,393.2c0-0.6,0-1.1,0-1.7
		c-0.3-20.1-16.5-30.9-35.2-23.7c-20.5,7.9-34.6,33.2-32,52.9c2.2,17.3,16.9,26.7,33.3,20.9C532.8,434.9,547.5,413.8,547.6,393.2z
		 M356,525.4c2.5,0.1,5.7-0.5,8.9-1.5c21-7,36.5-31.9,33.7-54.1c-2.1-16.1-15-25.1-30.7-21.1c-10.7,2.8-18.9,9.3-25.3,18.1
		c-8.3,11.4-12.9,24-10.4,38.3C334.3,517.5,343.4,525.4,356,525.4z M470.2,267.3c0.1,1.7,0.2,3.3,0.4,5c0.8,6.4,2.9,12.2,7.8,16.6
		c7.5,6.8,16.1,7.4,25.3,4.5c19.7-6.2,36.2-31.1,34-52.4c-1.9-18.8-17-28.3-34.6-21.6C484.7,226.3,470.8,246.6,470.2,267.3z
		 M474.5,359.3c0-1.6-0.2-4-0.6-6.5c-2.6-13.8-13.7-21.8-27.5-19.7c-9,1.4-16.4,5.9-22.7,12.3c-11.7,12.1-18.4,26.2-16.2,43.4
		c2,15.7,14.9,24.4,30.3,20.8C457.4,404.9,474.7,381.7,474.5,359.3z M319.9,84.2c2.2-0.1,4.4-0.1,6.6-0.3
		c9.7-1.1,18.8-3.7,26.4-10.2c9-7.6,9.8-19,1.9-27.8c-3.8-4.2-8.3-7.3-13.4-9.5c-11-4.8-22.5-6.4-34.3-4.9
		c-9.6,1.2-18.5,4.1-25.8,10.8C274,49,272.8,59,278.4,67c2.4,3.4,5.4,6.1,8.8,8.3C297.2,81.7,308.2,84.1,319.9,84.2z M277.2,223.2
		c1.2-0.1,3.3-0.1,5.4-0.3c9.2-0.9,17.9-3.4,25.4-9.1c10.2-7.7,11.5-19.2,3.2-28.9c-2.1-2.5-4.6-4.5-7.3-6.2
		c-12.6-7.8-26.4-9.8-40.9-8.1c-8.3,1-16.2,3.5-23,8.7c-9.8,7.4-11.6,18.9-4.3,27.8c2.5,3,5.4,5.6,8.7,7.6
		C254.1,220.8,264.9,223.1,277.2,223.2z M295.4,154.4c13.9,0,24.7-2.2,34-9.1c11-8.1,11.9-20.8,2.3-30.5c-2.5-2.5-5.3-4.6-8.4-6.3
		c-12.2-6.6-25.2-8.4-38.8-6.7c-8.2,1-16,3.5-22.7,8.7c-6.6,5.1-10.3,11.5-8.3,20.2c1.3,5.4,4.8,9.5,9.1,12.8
		C273,151.5,285.1,154.3,295.4,154.4z M195.4,375.6c0-9.9-3.2-20.5-8.8-28.7c-4-5.8-8.7-10.8-15.1-13.8c-10.6-5.1-20.5-1.6-25.6,9.1
		c-1.6,3.3-2.3,6.8-2.6,10.4c-0.8,10.7,1.8,20.5,7.2,29.6c4.7,8,10.8,14.6,19.9,17.6c9,3,17.3-0.5,21.7-8.9
		C194.5,386.1,195.5,381,195.4,375.6z"/>
</g>
</svg>
